<svg xmlns="http://www.w3.org/2000/svg" viewBox="0 0 24 24"><path d="M16.5,0 C18.4258234,0 20,1.57453852 20,3.5 L20,20.5 C20,22.4254615 18.4258234,24 16.5,24 L7.5,24 C5.57417664,24 4,22.4254615 4,20.5 L4,3.5 C4,1.57453852 5.57417664,0 7.5,0 L16.5,0 Z M16.5,1 L7.5,1 C6.12651285,1 5,2.12677182 5,3.5 L5,20.5 C5,21.8732282 6.12651285,23 7.5,23 L16.5,23 C17.8734871,23 19,21.8732282 19,20.5 L19,3.5 C19,2.12677182 17.8734871,1 16.5,1 Z M12,10.5 C15.0375661,10.5 17.5,12.9624339 17.5,16 C17.5,19.0375661 15.0375661,21.5 12,21.5 C8.96243388,21.5 6.5,19.0375661 6.5,16 C6.5,12.9624339 8.96243388,10.5 12,10.5 Z M12,11.5 C9.51471863,11.5 7.5,13.5147186 7.5,16 C7.5,18.4852814 9.51471863,20.5 12,20.5 C14.4852814,20.5 16.5,18.4852814 16.5,16 C16.5,13.5147186 14.4852814,11.5 12,11.5 Z M12,15 C12.5522847,15 13,15.4477153 13,16 C13,16.5522847 12.5522847,17 12,17 C11.4477153,17 11,16.5522847 11,16 C11,15.4477153 11.4477153,15 12,15 Z M17.5,3 C17.7761424,3 18,3.22385763 18,3.5 L18,8.5 C18,8.77614237 17.7761424,9 17.5,9 L6.5,9 C6.22385763,9 6,8.77614237 6,8.5 L6,3.5 C6,3.22385763 6.22385763,3 6.5,3 L17.5,3 Z M17,4 L7,4 L7,8 L17,8 L17,4 Z"/></svg>